<svg width="40" height="40" viewBox="0 0 40 40" fill="none" xmlns="http://www.w3.org/2000/svg">
  <defs>
    <linearGradient id="logoGradient" x1="0%" y1="0%" x2="100%" y2="100%">
      <stop offset="0%" style="stop-color:#3b82f6;stop-opacity:1" />
      <stop offset="50%" style="stop-color:#2563eb;stop-opacity:1" />
      <stop offset="100%" style="stop-color:#1d4ed8;stop-opacity:1" />
    </linearGradient>
    <linearGradient id="accentGradient" x1="0%" y1="0%" x2="100%" y2="100%">
      <stop offset="0%" style="stop-color:#60a5fa;stop-opacity:1" />
      <stop offset="100%" style="stop-color:#3b82f6;stop-opacity:1" />
    </linearGradient>
  </defs>
  
  <!-- Background circle with gradient -->
  <circle cx="20" cy="20" r="18" fill="url(#logoGradient)" opacity="0.1"/>
  
  <!-- Main brain/knowledge symbol -->
  <path d="M12 16C12 12 15 10 20 10C25 10 28 12 28 16C28 20 25 22 20 22C18.5 22 17.2 21.5 16.2 20.7" 
        stroke="url(#logoGradient)" 
        stroke-width="2.5" 
        stroke-linecap="round" 
        fill="none"/>
  
  <!-- Neural network connections -->
  <circle cx="16" cy="16" r="2" fill="url(#accentGradient)"/>
  <circle cx="20" cy="14" r="2" fill="url(#accentGradient)"/>
  <circle cx="24" cy="16" r="2" fill="url(#accentGradient)"/>
  <circle cx="18" cy="18" r="1.5" fill="url(#accentGradient)"/>
  <circle cx="22" cy="18" r="1.5" fill="url(#accentGradient)"/>
  
  <!-- Connection lines -->
  <line x1="16" y1="16" x2="20" y2="14" stroke="url(#accentGradient)" stroke-width="1" opacity="0.6"/>
  <line x1="20" y1="14" x2="24" y2="16" stroke="url(#accentGradient)" stroke-width="1" opacity="0.6"/>
  <line x1="16" y1="16" x2="18" y2="18" stroke="url(#accentGradient)" stroke-width="1" opacity="0.6"/>
  <line x1="24" y1="16" x2="22" y2="18" stroke="url(#accentGradient)" stroke-width="1" opacity="0.6"/>
  
  <!-- Search/AI indicator -->
  <circle cx="30" cy="10" r="6" fill="url(#logoGradient)" opacity="0.2"/>
  <path d="M27 10L29 12L33 8" stroke="url(#logoGradient)" stroke-width="1.5" stroke-linecap="round" stroke-linejoin="round"/>
  
  <!-- Knowledge sparkles -->
  <circle cx="8" cy="12" r="1" fill="url(#accentGradient)" opacity="0.7"/>
  <circle cx="32" cy="28" r="1" fill="url(#accentGradient)" opacity="0.7"/>
  <circle cx="6" cy="28" r="0.8" fill="url(#accentGradient)" opacity="0.5"/>
  <circle cx="34" cy="14" r="0.8" fill="url(#accentGradient)" opacity="0.5"/>
</svg>
